inDegrees=yes
name=ik_lifting_orientations
DataType=double
version=3
OpenSimVersion=4.5-2024-01-10-34fd6af
endheader
time	pelvis_tilt	pelvis_list	pelvis_rotation	pelvis_tx	pelvis_ty	pelvis_tz	hip_flexion_r	hip_adduction_r	hip_rotation_r	knee_angle_r	knee_angle_r_beta	ankle_angle_r	subtalar_angle_r	mtp_angle_r	hip_flexion_l	hip_adduction_l	hip_rotation_l	knee_angle_l	knee_angle_l_beta	ankle_angle_l	subtalar_angle_l	mtp_angle_l	lumbar_extension	lumbar_bending	lumbar_rotation	arm_flex_r	arm_add_r	arm_rot_r	elbow_flex_r	pro_sup_r	wrist_flex_r	wrist_dev_r	arm_flex_l	arm_add_l	arm_rot_l	elbow_flex_l	pro_sup_l	wrist_flex_l	wrist_dev_l
1.3	-1.018051694483457	-2.575426241571396	79.26802939765658	0	0.9399999998679526	0	24.41656176809284	-8.896675626347394	0	34.0317780306934	0.5939665769434717	-4.744363285920788	0	0	24.41656176809284	-8.896675626347394	0	34.0317780306934	0.5939665769434717	-4.744363285920788	0	0	-6.660352747093032	3.055613620657532	31.92324199388599	15.40238721645181	42.9924238344699	-20.88188260103169	160.4751954596844	43.1678665899528	0	0	0	-4.567336244908799	0	46.96434059247402	43.1678665899528	0	0
1.31	-1.288200424249588	-2.702067942567576	77.72218635188887	0	0.9399999998679526	0	24.43212686910172	-8.899378920929315	0	34.04927014621028	0.5942718719523804	-4.745179878451976	0	0	24.43212686910172	-8.899378920929315	0	34.04927014621028	0.5942718719523804	-4.745179878451976	0	0	-6.769862327400552	2.739976248626445	34.55220716152767	18.08786698481706	42.24695426846559	-22.57511046502364	160.3782338043413	43.14064380908387	0	0	0	-4.571105896728258	0	46.9914308321339	43.14064380908387	0	0
1.32	-1.521547987396487	-2.830677453364852	76.16257572846997	0	0.9399999998679526	0	24.44867560400945	-8.902242583857328	0	34.06788887428711	0.5945968300598545	-4.746043832858298	0	0	24.44867560400945	-8.902242583857328	0	34.06788887428711	0.5945968300598545	-4.746043832858298	0	0	-6.868412529023171	3.17270344742748	37.77710912714724	18.9913780321983	40.36051604160694	-24.14378089987955	162.0449032364912	43.11170461970145	0	0	0	-4.57512188778429	0	47.02022946105966	43.11170461970145	0	0
1.33	-1.531817044477113	-2.833344869203908	76.15878208189496	0	0.9399999998679526	0	24.46595630277912	-8.905237769158996	0	34.0872873095131	0.594935396624283	-4.746947431575636	0	0	24.46595630277912	-8.905237769158996	0	34.0872873095131	0.594935396624283	-4.746947431575636	0	0	-7.517895765791104	3.267061410454267	40.01730421118054	20.98772267430923	39.05231939784557	-25.57385256523766	163.396716745135	43.08148933413744	0	0	0	-4.57930708072635	0	47.05029779877198	43.08148933413744	0	0
1.34	-1.530997178336027	-2.832049302465501	76.17351120866796	0	0.9399999998679526	0	24.48195769029819	-8.908003099449278	0	34.10526290887617	0.595249130018188	-4.747780800882081	0	0	24.48195769029819	-8.908003099449278	0	34.10526290887617	0.595249130018188	-4.747780800882081	0	0	-8.172022207464607	3.327444502764377	42.22705218950277	24.34704771583817	36.91159261218714	-28.02865050952599	163.3178610894842	43.05351465426612	0	0	0	-4.583188444758173	0	47.07813669101022	43.05351465426612	0	0
1.35	-1.371276075074691	-3.950618389145215	75.20037029704827	0	0.9399999998679526	0	24.48880537618303	-8.909171448935524	0	34.11301449311144	0.595384420685339	-4.748131801774902	0	0	24.48880537618303	-8.909171448935524	0	34.11301449311144	0.595384420685339	-4.748131801774902	0	0	-8.136417787168636	3.909103364824592	43.66989191874836	24.85790352779982	35.85953456094761	-27.77777880496663	164.8447869457175	43.04154406591043	0	0	0	-4.584865321128827	0	47.09004969503611	43.04154406591043	0	0
1.36	-1.3678814526375	-3.963997608466487	75.20710662715911	0	0.9399999998679526	0	24.49958392778436	-8.911030628837874	0	34.12511964760387	0.5955956954876945	-4.748691561904704	0	0	24.49958392778436	-8.911030628837874	0	34.12511964760387	0.5955956954876945	-4.748691561904704	0	0	-7.840697285532607	3.69075940328065	45.48514709556252	28.23363518983821	34.9285944628909	-30.35029885508747	164.379881686235	43.02270341125973	0	0	0	-4.587481194622783	0	47.10879900397352	43.02270341125973	0	0
1.37	-1.369348680099218	-3.943661219345405	75.19521493992016	0	0.9399999998679526	0	24.5067475073347	-8.912261018796473	0	34.13318267171852	0.595736421806163	-4.749061577975525	0	0	24.5067475073347	-8.912261018796473	0	34.13318267171852	0.595736421806163	-4.749061577975525	0	0	-8.822654300455461	3.909023936726589	45.92522066315094	28.70634242334527	33.71738434889867	-29.58183363806765	165.884176507505	43.01018237853115	0	0	0	-4.589224841916959	0	47.12125950720569	43.01018237853115	0	0
1.38	-0.7878811526273192	-4.402820788262984	74.38462226171917	0	0.9399999998679526	0	24.51700241687851	-8.914016180859504	0	34.14474373657677	0.5959382004529761	-4.7495888664463	0	0	24.51700241687851	-8.914016180859504	0	34.14474373657677	0.5959382004529761	-4.7495888664463	0	0	-9.920941335953776	3.986691415709498	47.7486646879022	30.36693093278794	31.95419605926404	-29.43345368921687	166.8098270221402	42.99225933038544	0	0	0	-4.591726612788436	0	47.13909611668176	42.99225933038544	0	0
1.39	-1.63092733442377	-4.074104924015146	73.64483092946259	0	0.9399999998679526	0	24.58881606895536	-8.923478498947636	0	34.23931005519763	0.5975886940744001	-4.752257219662207	0	0	24.58881606895536	-8.923478498947636	0	34.23931005519763	0.5975886940744001	-4.752257219662207	0	0	-9.384440437937231	3.460191858723769	49.61082455998046	31.45359041588367	30.42138908616035	-30.72177272270598	167.1467577539956	42.86676849293314	0	0	0	-4.612620521495681	0	47.26408616053939	42.86676849293314	0	0
